# xmcd
#
# Track frame offsets:
#   150
#   20591
#   38961
#   56575
#   76177
#   94696
#   111475
#   133656
#   153217
#   169447
#   182860
#   201261
#   218019
#   235378
#   258685
#   274931
#   296765
#
# Disc length: 4190 seconds
#
# Revision: 0
# Processed by: cddbd v1.5.2PL0 Copyright (c) Steve Scherf et al.
# Submitted via: GXTranscoder 2.0.1939
#
DISCID=03105c11
DTITLE=Rumba - Rumba
DYEAR=2000
DGENRE=Blues
TTITLE0=Tender Heart
TTITLE1=Aloha Heya he
TTITLE2=Super Girl
TTITLE3=quante amore sei
TTITLE4=Missing you
TTITLE5=How deep is your love
TTITLE6=Alone
TTITLE7=Recover your soule
TTITLE8=I want it that way
TTITLE9=Tand by me
TTITLE10=When will i see you again
TTITLE11=Fields of gold
TTITLE12=Dieser Brief
TTITLE13=Sacrific
TTITLE14=Koteomo
TTITLE15=wonderful life
TTITLE16=Quit playing games
EXTD=
EXTT0=
EXTT1=
EXTT2=
EXTT3=
EXTT4=
EXTT5=
EXTT6=
EXTT7=
EXTT8=
EXTT9=
EXTT10=
EXTT11=
EXTT12=
EXTT13=
EXTT14=
EXTT15=
EXTT16=
PLAYORDER=
